<svg xmlns="http://www.w3.org/2000/svg" viewBox="0 0 107.78 71.1">
    <defs>
        <style>
            .cls-1{fill:#009035;}.cls-1,.cls-2{fill-rule:evenodd;}.cls-2{fill:#fff200;}.cls-3{fill:none;stroke:#fff200;stroke-width:0.22px;}</style>
    </defs>
    <g id="Layer_2" data-name="Layer 2">
        <g id="Layer_1-2" data-name="Layer 1">
            <path class="cls-1"
                d="M11,29.14C14.2,68,45.59,80.46,107.78,64,54,73.15,18.71,64.55,11,29.14Z" />
            <path class="cls-1"
                d="M96.76,42C93.58,3.05,62.18-9.36,0,7.09,53.77-2,89.07,6.54,96.76,42Z" />
            <path class="cls-1"
                d="M53.89,6.66c15.18,0,27.49,12.93,27.49,28.88S69.07,64.43,53.89,64.43,26.4,51.5,26.4,35.54,38.71,6.66,53.89,6.66Zm0,16.35c6.59,0,11.93,5.61,11.93,12.53S60.48,48.09,53.89,48.09,42,42.47,42,35.54,47.3,23,53.89,23Z" />
            <path class="cls-2"
                d="M69.4,50.69l1-1,.21.24-1.23,1.24-2.11-2.31,1.22-1.24.21.23-1,1,.7.77.92-.94.22.24-.92.94Zm-1.82-.94-.27.22a.91.91,0,0,0-.38-.3.49.49,0,0,0-.47.13.59.59,0,0,0-.11.72,3.12,3.12,0,0,0,.43.69l.13.17a2.07,2.07,0,0,0,.55.53.51.51,0,0,0,.81-.44,1.44,1.44,0,0,0-.19-.46L68,50.83l.26-.23.11.17c.1.15.16.26.19.29a1.27,1.27,0,0,1,.08.36,1,1,0,0,1-.06.39.85.85,0,0,1-.24.33.92.92,0,0,1-.69.23A1.29,1.29,0,0,1,67,52a4.38,4.38,0,0,1-.5-.59,2.17,2.17,0,0,1-.57-1.2.85.85,0,0,1,.34-.7.77.77,0,0,1,.67-.21,1.05,1.05,0,0,1,.6.4ZM67,53l-.28.19L65,50.52l.28-.2Zm-2.52-2.14.33-.19.71,3.25-.38.22L62.87,51.8l.32-.2,2,2.24ZM62.09,54.1l.55,1.29-.32.14L61.08,52.6l.73-.34a1.28,1.28,0,0,1,.74-.16.8.8,0,0,1,.53.53l0,0a.72.72,0,0,1,0,.5.66.66,0,0,1-.3.38.55.55,0,0,1,.42,0,.69.69,0,0,1,.3.34,3,3,0,0,0,.2.4c.07.1.11.18.14.23a.39.39,0,0,0,.08.09.11.11,0,0,0,.11,0l0,.07-.37.17a1.47,1.47,0,0,1-.22-.31,3.62,3.62,0,0,1-.19-.4.62.62,0,0,0-.26-.32.49.49,0,0,0-.44,0Zm-.58-1.35.45,1,.48-.23a.55.55,0,0,0,.33-.77v0a.47.47,0,0,0-.41-.34.78.78,0,0,0-.4.1Zm-1.28,3.12,1.3-.42.09.31L60,56.28l-.89-3.07,1.62-.52.09.3-1.3.41.3,1L61,54l.08.31-1.22.39ZM59,54.1l-.33.07,0-.06a.52.52,0,0,0-.19-.34.43.43,0,0,0-.37-.09.55.55,0,0,0-.42.29.69.69,0,0,0,0,.39.41.41,0,0,0,.36.37l.51.09a1.09,1.09,0,0,1,.62.25.76.76,0,0,1,.21.46.9.9,0,0,1-.13.75,1,1,0,0,1-.63.4,1,1,0,0,1-.47,0,.69.69,0,0,1-.43-.34.49.49,0,0,1-.1-.23,2.13,2.13,0,0,1-.08-.32l.34-.07v.1a.94.94,0,0,0,.2.46.58.58,0,0,0,.5.08.68.68,0,0,0,.39-.22.54.54,0,0,0,.09-.44c0-.22-.11-.35-.21-.41a1.64,1.64,0,0,0-.4-.1l-.32,0-.31-.07a.64.64,0,0,1-.33-.23,1,1,0,0,1-.16-.41.91.91,0,0,1,.13-.68.77.77,0,0,1,.55-.36.88.88,0,0,1,.67.08A.81.81,0,0,1,59,54Zm-4.34,1.18.59.9a2.47,2.47,0,0,0,.13-.6h.3a3.07,3.07,0,0,1-.07.45,1.23,1.23,0,0,1-.16.43l.4.6h-.41l-.19-.3a.84.84,0,0,1-.72.37.89.89,0,0,1-.65-.25,1.09,1.09,0,0,1-.07-1.27,2.4,2.4,0,0,1,.45-.39L54,54.88a1.23,1.23,0,0,1-.08-.39A.76.76,0,0,1,54.1,54a.56.56,0,0,1,.43-.19A.67.67,0,0,1,55,54a.66.66,0,0,1,.17.47.73.73,0,0,1-.17.46A1.32,1.32,0,0,1,54.63,55.28ZM54.48,55a1.16,1.16,0,0,0,.25-.24.51.51,0,0,0,.1-.32.45.45,0,0,0-.08-.26.26.26,0,0,0-.21-.09.23.23,0,0,0-.21.09.36.36,0,0,0-.08.25.64.64,0,0,0,.08.3ZM55,56.51l-.66-1a1,1,0,0,0-.3.3.72.72,0,0,0-.12.42.55.55,0,0,0,.58.62.53.53,0,0,0,.27-.08A1,1,0,0,0,55,56.51Zm-3.25-1.23-.25,1.65-.26,0,.07-.5a.68.68,0,0,1-.31.37.72.72,0,0,1-.46.06.81.81,0,0,1-.61-.37,1.41,1.41,0,0,1-.17-.69,3.34,3.34,0,0,1,.07-.78,3.54,3.54,0,0,1,.17-.74,1.23,1.23,0,0,1,.39-.58,1,1,0,0,1,1.3.23,1,1,0,0,1,.13.74v0l-.34,0a.68.68,0,0,0-.06-.5.49.49,0,0,0-.39-.26h0a.5.5,0,0,0-.48.13,1.23,1.23,0,0,0-.25.5,2.75,2.75,0,0,0-.12.58l0,.11a3.06,3.06,0,0,0,0,.82c0,.31.2.48.43.52h0a.52.52,0,0,0,.58-.27,1.76,1.76,0,0,0,.21-.7l-.68-.11.05-.32Zm-2.93.52.6-2.55.33.09-.74,3.12-.54-.15-.24-2.7a3,3,0,0,1,0-.51l0,.09s0,.06,0,.09,0,.1,0,.15l0,.15-.59,2.48L47.24,56,48,52.87l.54.14.23,2.77a.88.88,0,0,0,0,.17v.2a.25.25,0,0,0,0-.07s0,0,0-.06l0-.11A.43.43,0,0,1,48.86,55.8Zm-2.3-.11-.32-.12,1-3,.32.12ZM45.29,52l-1,2.32.49.24a.53.53,0,0,0,.56,0,1.73,1.73,0,0,0,.51-.73l.08-.18a2.4,2.4,0,0,0,.24-.86.58.58,0,0,0-.36-.55Zm-.66,2.86-.82-.39,1.29-2.91.77.37a1,1,0,0,1,.59.79,1.94,1.94,0,0,1-.22,1l-.06.14a2.57,2.57,0,0,1-.62.92A.8.8,0,0,1,44.63,54.87Zm-1.2-2,.48-1.68-1.17,1.26Zm-1.87.3,2.28-2.32.39.23-.79,3.24-.33-.2.24-.93-.84-.51-.64.69Zm-.73-2.32L40,52l-.27-.21,1.8-2.6.63.49a1.34,1.34,0,0,1,.51.6.85.85,0,0,1-.17.75l0,0a.64.64,0,0,1-.39.28.68.68,0,0,1-.47-.09.63.63,0,0,1,.22.38.78.78,0,0,1-.13.45,3,3,0,0,0-.23.38l-.12.24a.49.49,0,0,0,0,.12c0,.06,0,.09,0,.11l0,.06L41,52.75a2.33,2.33,0,0,1,.15-.36c.08-.14.15-.26.23-.38a.61.61,0,0,0,.14-.4.5.5,0,0,0-.23-.39Zm.83-1.19-.66.93.44.33a.58.58,0,0,0,.44.15.52.52,0,0,0,.36-.24v0a.52.52,0,0,0,.08-.55A1.14,1.14,0,0,0,42,50ZM39.84,48l.2-.24,1.42,1.36-.2.24-.59-.57L38.83,51l-.25-.23,1.85-2.15Z" />
            <polygon class="cls-2"
                points="33.62 32.92 34.23 34.9 36.17 34.9 34.59 36.13 35.2 38.1 33.62 36.88 32.05 38.1 32.65 36.13 31.08 34.9 33.02 34.9 33.62 32.92" />
            <polygon class="cls-2"
                points="74.08 32.92 74.69 34.9 76.63 34.9 75.05 36.13 75.66 38.1 74.08 36.88 72.51 38.1 73.11 36.13 71.54 34.9 73.48 34.9 74.08 32.92" />
            <polygon class="cls-3"
                points="74.08 32.92 74.69 34.9 76.63 34.9 75.05 36.13 75.66 38.1 74.08 36.88 72.51 38.1 73.11 36.13 71.54 34.9 73.48 34.9 74.08 32.92" />
            <path class="cls-2"
                d="M53.89,23c6.59,0,11.93,5.61,11.93,12.53S60.48,48.08,53.89,48.08,42,42.47,42,35.54,47.3,23,53.89,23Z" />
            <path class="cls-3"
                d="M53.89,23c6.59,0,11.93,5.61,11.93,12.53S60.48,48.08,53.89,48.08,42,42.47,42,35.54,47.3,23,53.89,23Z" />
            <path class="cls-2"
                d="M68.13,23.6l-.82-1.06,2.92-2.47.91,1.19a1,1,0,0,1,.16.32,1,1,0,0,1,0,.55,1.29,1.29,0,0,1-.28.46,5.83,5.83,0,0,1-.6.56,6.65,6.65,0,0,1-.91.68,1.11,1.11,0,0,1-1,.13l-.18-.11Zm.05-.84.2.24c.18.24.37.33.58.26a4.08,4.08,0,0,0,.93-.66,3,3,0,0,0,.68-.7.45.45,0,0,0,0-.52l-.3-.37ZM67.51,18l.37-.42,1.7,1.67-.37.42-.59-.57-2.18,2.45-.52-.5,2.19-2.46ZM65.1,20.3l-1.64-1.2,2.16-3.22.56.42L64.35,19l1.06.79ZM61.8,19l.1-.21a.32.32,0,0,0,.3,0,.63.63,0,0,0,.23-.28v0l-.31-.16.3-.62L63,18l-.29.6A.67.67,0,0,1,61.8,19Zm-.61-1.16-.6-.28.26-.63.6.28Zm-2.33-3.41-.27,1.06a1.42,1.42,0,0,0-.06.54.42.42,0,0,0,.33.41.4.4,0,0,0,.5-.18,1.84,1.84,0,0,0,.22-.56l.25-1a2,2,0,0,0,.09-.6.47.47,0,0,0-.33-.49.43.43,0,0,0-.48.18,1.58,1.58,0,0,0-.22.5Zm-.88.51.15-.55a2.61,2.61,0,0,1,.49-1.15,1,1,0,0,1,1.11-.2,1.09,1.09,0,0,1,.88.76A2.75,2.75,0,0,1,60.48,15l-.13.55a5.78,5.78,0,0,1-.29.89,1,1,0,0,1-.49.52,1.16,1.16,0,0,1-.85,0,1.37,1.37,0,0,1-.75-.45,1.12,1.12,0,0,1-.15-.71A4.3,4.3,0,0,1,58,14.92ZM56.6,15l.7.08,0,.23a1.45,1.45,0,0,1-.33.87.91.91,0,0,1-.85.26,1.29,1.29,0,0,1-.79-.34,1.11,1.11,0,0,1-.26-.67,5,5,0,0,1,0-1l.07-.56a2.64,2.64,0,0,1,.33-1.21,1.26,1.26,0,0,1,1.79,0,1,1,0,0,1,.19.78v.29l-.69-.09V13.2a.3.3,0,0,0-.27-.3.42.42,0,0,0-.45.23,1.53,1.53,0,0,0-.15.53v.16l-.13,1.08a1.91,1.91,0,0,0,0,.55.44.44,0,0,0,.39.36c.16,0,.29-.09.36-.32A2.48,2.48,0,0,0,56.6,15Zm-2.54,1.18-.66,0v-.69H54ZM51.78,15l-.31-2.65.69-.09L52.48,15a1.54,1.54,0,0,1-.13,1,1.19,1.19,0,0,1-.89.44,1.17,1.17,0,0,1-1-.2,1.45,1.45,0,0,1-.36-.93l-.31-2.71.69-.09.31,2.65a1,1,0,0,0,.19.58.46.46,0,0,0,.39.11.43.43,0,0,0,.38-.29A1.26,1.26,0,0,0,51.78,15ZM48,14.31,48,15.46l.58-.17-.46-1-.09-.2-.11-.31s0-.09,0-.13l0-.12,0,.27c0,.09,0,.18,0,.27Zm.18,2.74-.72.21-.11-4,.91-.26L50,16.52l-.72.21-.43-.91-.79.22Zm-5.45,1.48.62,1-.6.4-2-3.34,1-.62,1.23,1.34c.08.09.17.19.27.32l.29.37c-.07-.14-.15-.3-.21-.45l-.14-.38-.6-1.75.94-.62,2,3.33-.59.39-.62-1c-.15-.24-.29-.5-.44-.75-.42-.76-.65-1.19-.7-1.27L44.24,19l-.35.23-2.43-2.63h0c.15.26.3.5.45.74Zm-3.08.82.58,1,.43-.43-.86-.69-.17-.12a2,2,0,0,0-.24-.22l-.09-.1-.1-.08.15.22c.06.07.11.15.16.22A1.28,1.28,0,0,1,39.6,19.35ZM41,21.67l-.55.55-1.9-3.52.69-.68,3.17,2.27-.54.54-.79-.6-.6.59Zm-3.63-.54-.56-.49.44-.57,2.9,2.48-.46.59-1.38-.43a15,15,0,0,1-1.47-.58l.88.65.43.35.4.32.55.46-.44.58L35.74,22l.46-.6,1.39.46.69.23.78.35-.86-.65c-.13-.13-.27-.23-.39-.33Z" />
        </g>
    </g>
</svg>